<svg xmlns="http://www.w3.org/2000/svg" xmlns:xlink="http://www.w3.org/1999/xlink" version="1.1" id="Isolation_Mode" x="0px" y="0px" width="100.0px" height="100px" viewBox="0 0 344 344" enable-background="new 0 0 344 344" xml:space="preserve">
<g id="Layer_1">
	<path d="M328.902,25.585H309V25.5c0-6.075-4.925-11-11-11s-11,4.925-11,11v0.085H60.979C60.759,19.704,55.935,15,50,15   s-10.759,4.704-10.979,10.585H18.136c-5.907,0-10.697,6.039-10.697,13.484v196.65c0,7.447,4.79,13.484,10.697,13.484H39V319   c0,6.075,4.925,11,11,11s11-4.925,11-11v-69.796h226V318.5c0,6.075,4.925,11,11,11s11-4.925,11-11v-69.296h19.902   c5.907,0,10.697-6.038,10.697-13.484V39.069C339.6,31.624,334.81,25.585,328.902,25.585z M326.139,235.359H309h-22H61H39H20.542   V39.119H39h22h226h22h17.139V235.359z"/>
</g>
</svg>