<svg xmlns="http://www.w3.org/2000/svg" xmlns:xlink="http://www.w3.org/1999/xlink" version="1.1" id="Layer_1" x="0px" y="0px" width="89.129px" height="100px" viewBox="0 0 89.129 100" enable-background="new 0 0 89.129 100" xml:space="preserve">
<path d="M52.164,40.716c0,7.018-5.918,7.018-9.108,7.018h-3.978V34.466h5C46.871,34.466,52.164,34.466,52.164,40.716z"/>
<path d="M82.71,33.711c0.593-7.142,2.702-13.698,6.419-19.707L74.872,0c-4.505,3.809-9.635,5.918-15.449,6.289  c-5.325,0.475-10.377-0.521-15.124-2.988c-4.883,2.389-9.915,3.385-15.156,2.988c-5.423-0.475-10.319-2.363-14.7-5.709L0.146,14.577  c3.516,6.094,5.475,12.474,5.859,19.134c0.182,3.066-0.71,7.285-2.708,12.741c-1.048,3.027-1.836,5.651-2.376,7.845  c-0.501,2.175-0.813,3.945-0.918,5.273C-0.069,65.384,1.591,70.632,4.996,75.3c2.663,3.404,7.051,7.168,13.145,11.282  c6.667,3.333,11.83,5.495,15.443,6.419c1.035,0.476,2.051,0.932,2.995,1.367c0.944,0.443,1.953,0.873,3.008,1.348  c2.272,1.335,3.867,2.787,4.713,4.284c1.029-1.621,2.663-3.034,4.831-4.284c1.53-0.657,2.826-1.224,3.867-1.725  c1.042-0.449,1.816-0.788,2.266-0.99c0.769-0.377,1.784-0.807,3.008-1.282c1.237-0.481,2.761-1.062,4.584-1.712  c3.521-1.225,6.087-2.383,7.715-3.425c5.911-4.114,10.234-7.812,12.981-11.126c3.528-4.682,5.241-9.955,5.163-15.886  c-0.209-2.656-1.354-6.901-3.432-12.689C83.303,41.244,82.424,36.869,82.71,33.711z M56.506,52.897  c-3.386,2.174-8.041,2.174-10.469,2.174h-6.673v17.93H29.325V27.012H43.57c6.621,0,12.161,0.417,16.003,5.02  c2.402,2.93,2.806,6.256,2.806,8.62C62.378,46.009,60.132,50.527,56.506,52.897z"/>
</svg>