<svg xmlns="http://www.w3.org/2000/svg" xmlns:xlink="http://www.w3.org/1999/xlink" version="1.1" id="Your_Icon" x="0px" y="0px" width="100px" height="100px" viewBox="0 0 100 100" enable-background="new 0 0 100 100" xml:space="preserve">
<g>
	<path fill-rule="evenodd" clip-rule="evenodd" d="M90,38.5H10c-5.523,0-10,4.477-10,10v2c0,5.523,4.477,10,10,10h80   c5.523,0,10-4.477,10-10v-2C100,42.977,95.523,38.5,90,38.5z"/>
	<path fill-rule="evenodd" clip-rule="evenodd" d="M90,68.5H10c-5.523,0-10,4.477-10,10v2c0,5.523,4.477,10,10,10h80   c5.523,0,10-4.477,10-10v-2C100,72.977,95.523,68.5,90,68.5z"/>
	<path fill-rule="evenodd" clip-rule="evenodd" d="M90,8.5H10c-5.523,0-10,4.477-10,10v2c0,5.523,4.477,10,10,10h80   c5.523,0,10-4.477,10-10v-2C100,12.977,95.523,8.5,90,8.5z"/>
</g>
</svg>